<mxfile host="app.diagrams.net" modified="2021-12-30T11:06:06.318Z" agent="5.0 (Macintosh; Intel Mac OS X 10_15_7) AppleWebKit/537.36 (KHTML, like Gecko) Chrome/96.0.4664.110 Safari/537.36" etag="q_OZYwGHzl86anBq4uux" version="16.1.0" type="github">
  <diagram id="u_3kQUr9uVrfoITGdIjY" name="Page-1">
    <mxGraphModel dx="1608" dy="903" grid="1" gridSize="10" guides="1" tooltips="1" connect="1" arrows="1" fold="1" page="1" pageScale="1" pageWidth="827" pageHeight="1169" math="0" shadow="0">
      <root>
        <mxCell id="0" />
        <mxCell id="1" parent="0" />
        <mxCell id="-dqMX0dqwECL1H6PeXHk-1" value="AWS Cloud" style="points=[[0,0],[0.25,0],[0.5,0],[0.75,0],[1,0],[1,0.25],[1,0.5],[1,0.75],[1,1],[0.75,1],[0.5,1],[0.25,1],[0,1],[0,0.75],[0,0.5],[0,0.25]];outlineConnect=0;gradientColor=none;html=1;whiteSpace=wrap;fontSize=12;fontStyle=0;container=1;pointerEvents=0;collapsible=0;recursiveResize=0;shape=mxgraph.aws4.group;grIcon=mxgraph.aws4.group_aws_cloud;strokeColor=#232F3E;fillColor=default;verticalAlign=top;align=left;spacingLeft=30;fontColor=#232F3E;dashed=0;strokeWidth=2;" vertex="1" parent="1">
          <mxGeometry x="120" y="320" width="1050" height="640" as="geometry" />
        </mxCell>
        <mxCell id="-dqMX0dqwECL1H6PeXHk-2" value="VPC" style="points=[[0,0],[0.25,0],[0.5,0],[0.75,0],[1,0],[1,0.25],[1,0.5],[1,0.75],[1,1],[0.75,1],[0.5,1],[0.25,1],[0,1],[0,0.75],[0,0.5],[0,0.25]];outlineConnect=0;gradientColor=none;html=1;whiteSpace=wrap;fontSize=12;fontStyle=0;container=1;pointerEvents=0;collapsible=0;recursiveResize=0;shape=mxgraph.aws4.group;grIcon=mxgraph.aws4.group_vpc;strokeColor=#248814;fillColor=none;verticalAlign=top;align=left;spacingLeft=30;fontColor=#AAB7B8;dashed=0;strokeWidth=2;" vertex="1" parent="-dqMX0dqwECL1H6PeXHk-1">
          <mxGeometry x="40" y="40" width="960" height="560" as="geometry" />
        </mxCell>
        <mxCell id="-dqMX0dqwECL1H6PeXHk-23" value="AZ - B" style="fillColor=#E6E6E6;strokeColor=#147EBA;dashed=1;verticalAlign=top;fontStyle=0;fontColor=#147EBA;strokeWidth=2;fontSize=18;" vertex="1" parent="-dqMX0dqwECL1H6PeXHk-2">
          <mxGeometry x="680" y="120" width="199" height="400" as="geometry" />
        </mxCell>
        <mxCell id="-dqMX0dqwECL1H6PeXHk-3" value="AZ - A" style="fillColor=#E6E6E6;strokeColor=#147EBA;dashed=1;verticalAlign=top;fontStyle=0;fontColor=#147EBA;strokeWidth=2;fontSize=18;" vertex="1" parent="-dqMX0dqwECL1H6PeXHk-2">
          <mxGeometry x="79" y="120" width="441" height="400" as="geometry" />
        </mxCell>
        <mxCell id="-dqMX0dqwECL1H6PeXHk-5" value="Public subnet" style="points=[[0,0],[0.25,0],[0.5,0],[0.75,0],[1,0],[1,0.25],[1,0.5],[1,0.75],[1,1],[0.75,1],[0.5,1],[0.25,1],[0,1],[0,0.75],[0,0.5],[0,0.25]];outlineConnect=0;html=1;whiteSpace=wrap;fontSize=12;fontStyle=0;container=1;pointerEvents=0;collapsible=0;recursiveResize=0;shape=mxgraph.aws4.group;grIcon=mxgraph.aws4.group_security_group;grStroke=0;strokeColor=#4D4D4D;fillColor=#d5e8d4;verticalAlign=top;align=left;spacingLeft=30;dashed=0;strokeWidth=1;" vertex="1" parent="-dqMX0dqwECL1H6PeXHk-2">
          <mxGeometry x="119" y="160" width="361" height="82" as="geometry" />
        </mxCell>
        <mxCell id="-dqMX0dqwECL1H6PeXHk-6" value="ELB" style="sketch=0;outlineConnect=0;fontColor=#232F3E;gradientColor=none;fillColor=#4D27AA;strokeColor=none;dashed=0;verticalLabelPosition=bottom;verticalAlign=top;align=center;html=1;fontSize=12;fontStyle=0;aspect=fixed;pointerEvents=1;shape=mxgraph.aws4.application_load_balancer;" vertex="1" parent="-dqMX0dqwECL1H6PeXHk-5">
          <mxGeometry x="281" y="21" width="40" height="40" as="geometry" />
        </mxCell>
        <mxCell id="-dqMX0dqwECL1H6PeXHk-9" value="Private subnet" style="points=[[0,0],[0.25,0],[0.5,0],[0.75,0],[1,0],[1,0.25],[1,0.5],[1,0.75],[1,1],[0.75,1],[0.5,1],[0.25,1],[0,1],[0,0.75],[0,0.5],[0,0.25]];outlineConnect=0;gradientColor=none;html=1;whiteSpace=wrap;fontSize=12;fontStyle=0;container=1;pointerEvents=0;collapsible=0;recursiveResize=0;shape=mxgraph.aws4.group;grIcon=mxgraph.aws4.group_security_group;grStroke=0;strokeColor=#147EBA;fillColor=#E6F2F8;verticalAlign=top;align=left;spacingLeft=30;fontColor=#147EBA;dashed=0;" vertex="1" parent="-dqMX0dqwECL1H6PeXHk-2">
          <mxGeometry x="119" y="280" width="361" height="80" as="geometry" />
        </mxCell>
        <mxCell id="-dqMX0dqwECL1H6PeXHk-35" value="JumpServer" style="sketch=0;points=[[0,0,0],[0.25,0,0],[0.5,0,0],[0.75,0,0],[1,0,0],[0,1,0],[0.25,1,0],[0.5,1,0],[0.75,1,0],[1,1,0],[0,0.25,0],[0,0.5,0],[0,0.75,0],[1,0.25,0],[1,0.5,0],[1,0.75,0]];outlineConnect=0;fontColor=#232F3E;gradientColor=#F78E04;gradientDirection=north;fillColor=#D05C17;strokeColor=#ffffff;dashed=0;verticalLabelPosition=bottom;verticalAlign=top;align=center;html=1;fontSize=12;fontStyle=0;aspect=fixed;shape=mxgraph.aws4.resourceIcon;resIcon=mxgraph.aws4.compute;" vertex="1" parent="-dqMX0dqwECL1H6PeXHk-9">
          <mxGeometry x="281" y="28" width="40" height="40" as="geometry" />
        </mxCell>
        <mxCell id="-dqMX0dqwECL1H6PeXHk-11" value="Sensitive subnet" style="points=[[0,0],[0.25,0],[0.5,0],[0.75,0],[1,0],[1,0.25],[1,0.5],[1,0.75],[1,1],[0.75,1],[0.5,1],[0.25,1],[0,1],[0,0.75],[0,0.5],[0,0.25]];outlineConnect=0;html=1;whiteSpace=wrap;fontSize=12;fontStyle=0;container=1;pointerEvents=0;collapsible=0;recursiveResize=0;shape=mxgraph.aws4.group;grIcon=mxgraph.aws4.group_security_group;grStroke=0;strokeColor=#9673a6;fillColor=#e1d5e7;verticalAlign=top;align=left;spacingLeft=30;dashed=0;" vertex="1" parent="-dqMX0dqwECL1H6PeXHk-2">
          <mxGeometry x="119" y="400" width="361" height="80" as="geometry" />
        </mxCell>
        <mxCell id="-dqMX0dqwECL1H6PeXHk-12" value="" style="sketch=0;outlineConnect=0;fontColor=#232F3E;gradientColor=none;fillColor=#2E27AD;strokeColor=none;dashed=0;verticalLabelPosition=bottom;verticalAlign=top;align=center;html=1;fontSize=12;fontStyle=0;aspect=fixed;pointerEvents=1;shape=mxgraph.aws4.rds_instance;" vertex="1" parent="-dqMX0dqwECL1H6PeXHk-11">
          <mxGeometry x="281" y="30" width="40" height="40" as="geometry" />
        </mxCell>
        <mxCell id="-dqMX0dqwECL1H6PeXHk-13" style="edgeStyle=orthogonalEdgeStyle;rounded=0;orthogonalLoop=1;jettySize=auto;html=1;strokeWidth=2;endArrow=none;endFill=0;fillColor=#0050ef;strokeColor=#001DBC;opacity=20;" edge="1" parent="-dqMX0dqwECL1H6PeXHk-2" source="-dqMX0dqwECL1H6PeXHk-19">
          <mxGeometry relative="1" as="geometry">
            <mxPoint x="480" y="230" as="targetPoint" />
            <Array as="points">
              <mxPoint x="540" y="322" />
              <mxPoint x="540" y="230" />
            </Array>
          </mxGeometry>
        </mxCell>
        <mxCell id="-dqMX0dqwECL1H6PeXHk-14" style="edgeStyle=orthogonalEdgeStyle;rounded=0;orthogonalLoop=1;jettySize=auto;html=1;endArrow=none;endFill=0;strokeWidth=2;strokeColor=#001DBC;fillColor=#0050ef;opacity=20;" edge="1" parent="-dqMX0dqwECL1H6PeXHk-2" source="-dqMX0dqwECL1H6PeXHk-19">
          <mxGeometry relative="1" as="geometry">
            <mxPoint x="481" y="323" as="targetPoint" />
            <Array as="points">
              <mxPoint x="510" y="322" />
              <mxPoint x="510" y="322" />
            </Array>
          </mxGeometry>
        </mxCell>
        <mxCell id="-dqMX0dqwECL1H6PeXHk-15" style="edgeStyle=orthogonalEdgeStyle;rounded=0;orthogonalLoop=1;jettySize=auto;html=1;entryX=0.906;entryY=0.75;entryDx=0;entryDy=0;entryPerimeter=0;endArrow=none;endFill=0;strokeWidth=2;strokeColor=#001DBC;fillColor=#0050ef;opacity=20;" edge="1" parent="-dqMX0dqwECL1H6PeXHk-2" source="-dqMX0dqwECL1H6PeXHk-19" target="-dqMX0dqwECL1H6PeXHk-3">
          <mxGeometry relative="1" as="geometry" />
        </mxCell>
        <mxCell id="-dqMX0dqwECL1H6PeXHk-16" style="edgeStyle=orthogonalEdgeStyle;rounded=0;orthogonalLoop=1;jettySize=auto;html=1;entryX=0.125;entryY=0.25;entryDx=0;entryDy=0;entryPerimeter=0;endArrow=none;endFill=0;strokeWidth=2;strokeColor=#001DBC;fillColor=#0050ef;opacity=20;" edge="1" parent="-dqMX0dqwECL1H6PeXHk-2" source="-dqMX0dqwECL1H6PeXHk-19" target="-dqMX0dqwECL1H6PeXHk-23">
          <mxGeometry relative="1" as="geometry" />
        </mxCell>
        <mxCell id="-dqMX0dqwECL1H6PeXHk-17" style="edgeStyle=orthogonalEdgeStyle;rounded=0;orthogonalLoop=1;jettySize=auto;html=1;entryX=0.125;entryY=0.5;entryDx=0;entryDy=0;entryPerimeter=0;endArrow=none;endFill=0;strokeWidth=2;strokeColor=#001DBC;fillColor=#0050ef;opacity=20;" edge="1" parent="-dqMX0dqwECL1H6PeXHk-2" source="-dqMX0dqwECL1H6PeXHk-19" target="-dqMX0dqwECL1H6PeXHk-23">
          <mxGeometry relative="1" as="geometry" />
        </mxCell>
        <mxCell id="-dqMX0dqwECL1H6PeXHk-18" style="edgeStyle=orthogonalEdgeStyle;rounded=0;orthogonalLoop=1;jettySize=auto;html=1;entryX=0.125;entryY=0.75;entryDx=0;entryDy=0;entryPerimeter=0;endArrow=none;endFill=0;strokeWidth=2;strokeColor=#001DBC;fillColor=#0050ef;opacity=20;" edge="1" parent="-dqMX0dqwECL1H6PeXHk-2" source="-dqMX0dqwECL1H6PeXHk-19" target="-dqMX0dqwECL1H6PeXHk-23">
          <mxGeometry relative="1" as="geometry" />
        </mxCell>
        <mxCell id="-dqMX0dqwECL1H6PeXHk-19" value="" style="sketch=0;outlineConnect=0;fontColor=#232F3E;gradientColor=none;fillColor=#4D27AA;strokeColor=none;dashed=0;verticalLabelPosition=bottom;verticalAlign=top;align=center;html=1;fontSize=12;fontStyle=0;aspect=fixed;pointerEvents=1;shape=mxgraph.aws4.route_table;opacity=20;" vertex="1" parent="-dqMX0dqwECL1H6PeXHk-2">
          <mxGeometry x="560" y="282" width="78" height="76" as="geometry" />
        </mxCell>
        <mxCell id="-dqMX0dqwECL1H6PeXHk-20" value="" style="sketch=0;outlineConnect=0;fontColor=#232F3E;gradientColor=none;fillColor=#4D27AA;strokeColor=none;dashed=0;verticalLabelPosition=bottom;verticalAlign=top;align=center;html=1;fontSize=12;fontStyle=0;aspect=fixed;pointerEvents=1;shape=mxgraph.aws4.internet_gateway;" vertex="1" parent="-dqMX0dqwECL1H6PeXHk-2">
          <mxGeometry x="560" width="40" height="40" as="geometry" />
        </mxCell>
        <mxCell id="-dqMX0dqwECL1H6PeXHk-22" style="edgeStyle=orthogonalEdgeStyle;rounded=1;orthogonalLoop=1;jettySize=auto;html=1;strokeWidth=2;startArrow=none;" edge="1" parent="-dqMX0dqwECL1H6PeXHk-2" target="-dqMX0dqwECL1H6PeXHk-12">
          <mxGeometry relative="1" as="geometry">
            <mxPoint x="440" y="328" as="sourcePoint" />
            <Array as="points">
              <mxPoint x="470" y="328" />
              <mxPoint x="470" y="450" />
            </Array>
          </mxGeometry>
        </mxCell>
        <mxCell id="-dqMX0dqwECL1H6PeXHk-25" value="Public subnet" style="points=[[0,0],[0.25,0],[0.5,0],[0.75,0],[1,0],[1,0.25],[1,0.5],[1,0.75],[1,1],[0.75,1],[0.5,1],[0.25,1],[0,1],[0,0.75],[0,0.5],[0,0.25]];outlineConnect=0;html=1;whiteSpace=wrap;fontSize=12;fontStyle=0;container=1;pointerEvents=0;collapsible=0;recursiveResize=0;shape=mxgraph.aws4.group;grIcon=mxgraph.aws4.group_security_group;grStroke=0;strokeColor=#82b366;fillColor=#d5e8d4;verticalAlign=top;align=left;spacingLeft=30;dashed=0;" vertex="1" parent="-dqMX0dqwECL1H6PeXHk-2">
          <mxGeometry x="720" y="160" width="119" height="82" as="geometry" />
        </mxCell>
        <mxCell id="-dqMX0dqwECL1H6PeXHk-29" value="Private subnet" style="points=[[0,0],[0.25,0],[0.5,0],[0.75,0],[1,0],[1,0.25],[1,0.5],[1,0.75],[1,1],[0.75,1],[0.5,1],[0.25,1],[0,1],[0,0.75],[0,0.5],[0,0.25]];outlineConnect=0;gradientColor=none;html=1;whiteSpace=wrap;fontSize=12;fontStyle=0;container=1;pointerEvents=0;collapsible=0;recursiveResize=0;shape=mxgraph.aws4.group;grIcon=mxgraph.aws4.group_security_group;grStroke=0;strokeColor=#000000;fillColor=#E6F2F8;verticalAlign=top;align=left;spacingLeft=30;fontColor=#147EBA;dashed=0;" vertex="1" parent="-dqMX0dqwECL1H6PeXHk-2">
          <mxGeometry x="720" y="280" width="119" height="80" as="geometry" />
        </mxCell>
        <mxCell id="-dqMX0dqwECL1H6PeXHk-48" value="JumpServer" style="sketch=0;points=[[0,0,0],[0.25,0,0],[0.5,0,0],[0.75,0,0],[1,0,0],[0,1,0],[0.25,1,0],[0.5,1,0],[0.75,1,0],[1,1,0],[0,0.25,0],[0,0.5,0],[0,0.75,0],[1,0.25,0],[1,0.5,0],[1,0.75,0]];outlineConnect=0;fontColor=#232F3E;gradientColor=#F78E04;gradientDirection=north;fillColor=#D05C17;strokeColor=#ffffff;dashed=0;verticalLabelPosition=bottom;verticalAlign=top;align=center;html=1;fontSize=12;fontStyle=0;aspect=fixed;shape=mxgraph.aws4.resourceIcon;resIcon=mxgraph.aws4.compute;" vertex="1" parent="-dqMX0dqwECL1H6PeXHk-29">
          <mxGeometry x="39.5" y="28" width="40" height="40" as="geometry" />
        </mxCell>
        <mxCell id="-dqMX0dqwECL1H6PeXHk-31" value="Sensitive&amp;nbsp;subnet" style="points=[[0,0],[0.25,0],[0.5,0],[0.75,0],[1,0],[1,0.25],[1,0.5],[1,0.75],[1,1],[0.75,1],[0.5,1],[0.25,1],[0,1],[0,0.75],[0,0.5],[0,0.25]];outlineConnect=0;html=1;whiteSpace=wrap;fontSize=12;fontStyle=0;container=1;pointerEvents=0;collapsible=0;recursiveResize=0;shape=mxgraph.aws4.group;grIcon=mxgraph.aws4.group_security_group;grStroke=0;strokeColor=#9673a6;fillColor=#e1d5e7;verticalAlign=top;align=left;spacingLeft=30;dashed=0;" vertex="1" parent="-dqMX0dqwECL1H6PeXHk-2">
          <mxGeometry x="720" y="400" width="119" height="80" as="geometry" />
        </mxCell>
        <mxCell id="-dqMX0dqwECL1H6PeXHk-4" style="edgeStyle=orthogonalEdgeStyle;rounded=1;orthogonalLoop=1;jettySize=auto;html=1;strokeWidth=2;startArrow=classic;startFill=1;endArrow=none;endFill=0;" edge="1" parent="-dqMX0dqwECL1H6PeXHk-2" source="-dqMX0dqwECL1H6PeXHk-6" target="-dqMX0dqwECL1H6PeXHk-20">
          <mxGeometry relative="1" as="geometry">
            <Array as="points">
              <mxPoint x="420" y="70" />
              <mxPoint x="580" y="70" />
            </Array>
          </mxGeometry>
        </mxCell>
        <mxCell id="-dqMX0dqwECL1H6PeXHk-37" style="edgeStyle=orthogonalEdgeStyle;rounded=1;orthogonalLoop=1;jettySize=auto;html=1;startArrow=none;startFill=0;endArrow=classic;endFill=1;strokeWidth=2;" edge="1" parent="-dqMX0dqwECL1H6PeXHk-2" source="-dqMX0dqwECL1H6PeXHk-6" target="-dqMX0dqwECL1H6PeXHk-35">
          <mxGeometry relative="1" as="geometry">
            <Array as="points">
              <mxPoint x="480" y="201" />
              <mxPoint x="480" y="260" />
              <mxPoint x="420" y="260" />
            </Array>
          </mxGeometry>
        </mxCell>
        <mxCell id="-dqMX0dqwECL1H6PeXHk-38" style="edgeStyle=orthogonalEdgeStyle;rounded=1;orthogonalLoop=1;jettySize=auto;html=1;startArrow=none;startFill=0;endArrow=classic;endFill=1;strokeWidth=2;" edge="1" parent="-dqMX0dqwECL1H6PeXHk-2" source="-dqMX0dqwECL1H6PeXHk-35" target="-dqMX0dqwECL1H6PeXHk-10">
          <mxGeometry relative="1" as="geometry" />
        </mxCell>
        <mxCell id="-dqMX0dqwECL1H6PeXHk-10" value="EKS" style="sketch=0;points=[[0,0,0],[0.25,0,0],[0.5,0,0],[0.75,0,0],[1,0,0],[0,1,0],[0.25,1,0],[0.5,1,0],[0.75,1,0],[1,1,0],[0,0.25,0],[0,0.5,0],[0,0.75,0],[1,0.25,0],[1,0.5,0],[1,0.75,0]];outlineConnect=0;fontColor=#232F3E;gradientColor=#F78E04;gradientDirection=north;fillColor=#D05C17;strokeColor=#ffffff;dashed=0;verticalLabelPosition=bottom;verticalAlign=top;align=center;html=1;fontSize=12;fontStyle=0;aspect=fixed;shape=mxgraph.aws4.resourceIcon;resIcon=mxgraph.aws4.eks;" vertex="1" parent="-dqMX0dqwECL1H6PeXHk-2">
          <mxGeometry x="279.5" y="308" width="40" height="40" as="geometry" />
        </mxCell>
        <mxCell id="-dqMX0dqwECL1H6PeXHk-39" value="" style="edgeStyle=orthogonalEdgeStyle;rounded=1;orthogonalLoop=1;jettySize=auto;html=1;strokeWidth=2;exitX=0;exitY=0.5;exitDx=0;exitDy=0;exitPerimeter=0;endArrow=none;" edge="1" parent="-dqMX0dqwECL1H6PeXHk-2" source="-dqMX0dqwECL1H6PeXHk-35" target="-dqMX0dqwECL1H6PeXHk-10">
          <mxGeometry relative="1" as="geometry">
            <mxPoint x="560" y="688" as="sourcePoint" />
            <mxPoint x="459.03999999999996" y="790.0499977273762" as="targetPoint" />
          </mxGeometry>
        </mxCell>
        <mxCell id="-dqMX0dqwECL1H6PeXHk-46" style="edgeStyle=orthogonalEdgeStyle;rounded=1;orthogonalLoop=1;jettySize=auto;html=1;startArrow=none;startFill=0;endArrow=classic;endFill=1;strokeWidth=2;" edge="1" parent="-dqMX0dqwECL1H6PeXHk-2" source="-dqMX0dqwECL1H6PeXHk-20" target="-dqMX0dqwECL1H6PeXHk-45">
          <mxGeometry relative="1" as="geometry">
            <Array as="points">
              <mxPoint x="580" y="70" />
              <mxPoint x="780" y="70" />
            </Array>
          </mxGeometry>
        </mxCell>
        <mxCell id="-dqMX0dqwECL1H6PeXHk-47" style="edgeStyle=orthogonalEdgeStyle;rounded=1;orthogonalLoop=1;jettySize=auto;html=1;entryX=0.5;entryY=0;entryDx=0;entryDy=0;entryPerimeter=0;startArrow=none;startFill=0;endArrow=classic;endFill=1;strokeWidth=2;" edge="1" parent="-dqMX0dqwECL1H6PeXHk-2" source="-dqMX0dqwECL1H6PeXHk-45" target="-dqMX0dqwECL1H6PeXHk-48">
          <mxGeometry relative="1" as="geometry">
            <Array as="points">
              <mxPoint x="840" y="201" />
              <mxPoint x="840" y="260" />
              <mxPoint x="780" y="260" />
              <mxPoint x="780" y="308" />
            </Array>
          </mxGeometry>
        </mxCell>
        <mxCell id="-dqMX0dqwECL1H6PeXHk-45" value="ELB" style="sketch=0;outlineConnect=0;fontColor=#232F3E;gradientColor=none;fillColor=#4D27AA;strokeColor=none;dashed=0;verticalLabelPosition=bottom;verticalAlign=top;align=center;html=1;fontSize=12;fontStyle=0;aspect=fixed;pointerEvents=1;shape=mxgraph.aws4.application_load_balancer;" vertex="1" parent="-dqMX0dqwECL1H6PeXHk-2">
          <mxGeometry x="759.5" y="181" width="40" height="40" as="geometry" />
        </mxCell>
        <mxCell id="-dqMX0dqwECL1H6PeXHk-49" style="edgeStyle=orthogonalEdgeStyle;rounded=0;orthogonalLoop=1;jettySize=auto;html=1;startArrow=classic;startFill=1;endArrow=classic;endFill=1;dashed=1;strokeWidth=3;fillColor=#008a00;strokeColor=#005700;" edge="1" parent="-dqMX0dqwECL1H6PeXHk-2" source="-dqMX0dqwECL1H6PeXHk-35" target="-dqMX0dqwECL1H6PeXHk-48">
          <mxGeometry relative="1" as="geometry" />
        </mxCell>
        <mxCell id="-dqMX0dqwECL1H6PeXHk-50" value="HA" style="edgeLabel;html=1;align=center;verticalAlign=middle;resizable=0;points=[];fontSize=31;" vertex="1" connectable="0" parent="-dqMX0dqwECL1H6PeXHk-49">
          <mxGeometry x="0.4423" y="-1" relative="1" as="geometry">
            <mxPoint x="-70" y="-1" as="offset" />
          </mxGeometry>
        </mxCell>
        <mxCell id="-dqMX0dqwECL1H6PeXHk-43" style="edgeStyle=orthogonalEdgeStyle;rounded=1;orthogonalLoop=1;jettySize=auto;html=1;startArrow=none;startFill=0;endArrow=classic;endFill=1;strokeWidth=2;" edge="1" parent="1" source="-dqMX0dqwECL1H6PeXHk-42" target="-dqMX0dqwECL1H6PeXHk-20">
          <mxGeometry relative="1" as="geometry" />
        </mxCell>
        <mxCell id="-dqMX0dqwECL1H6PeXHk-42" value="" style="sketch=0;outlineConnect=0;fontColor=#232F3E;gradientColor=none;fillColor=#232F3D;strokeColor=none;dashed=0;verticalLabelPosition=bottom;verticalAlign=top;align=center;html=1;fontSize=12;fontStyle=0;aspect=fixed;pointerEvents=1;shape=mxgraph.aws4.user;" vertex="1" parent="1">
          <mxGeometry x="620" y="190" width="40" height="40" as="geometry" />
        </mxCell>
      </root>
    </mxGraphModel>
  </diagram>
</mxfile>
